<svg width="181" height="48" viewBox="0 0 181 48" fill="none" xmlns="http://www.w3.org/2000/svg">
<rect x="0.5" y="0.5" width="180" height="47" rx="9.5" fill="#005ABC"/>
<g clip-path="url(#clip0_1117_2033)">
<path fill-rule="evenodd" clip-rule="evenodd" d="M23.0719 -8.46771C22.8564 -8.46771 22.6379 -8.52668 22.4424 -8.64988C16.188 -12.5847 8.94602 -14.6645 1.5003 -14.6645C0.649963 -14.6645 -0.213329 -14.637 -1.06366 -14.5839C-2.01469 -14.5232 -2.9722 -14.4274 -3.90792 -14.2984C-4.54862 -14.2143 -5.1475 -14.6563 -5.23642 -15.2951C-5.32593 -15.9338 -4.87544 -16.5236 -4.23122 -16.6123C-3.23837 -16.7489 -2.22256 -16.8499 -1.21383 -16.9148C-0.313435 -16.9708 0.599907 -17 1.5003 -17C9.39357 -17 17.0719 -14.7947 23.7038 -10.6211C24.2532 -10.276 24.4157 -9.55432 24.0671 -9.01014C23.8434 -8.65923 23.4618 -8.46771 23.0719 -8.46771ZM12.3539 -7.23922C12.2314 -7.23922 12.1065 -7.25849 11.984 -7.29878C9.82229 -8.00761 7.5828 -8.4934 5.32742 -8.74214C0.712997 -9.24953 -3.89377 -8.83439 -8.23377 -7.52357C-8.85621 -7.33556 -9.51457 -7.68297 -9.7036 -8.30014C-9.89322 -8.9173 -9.54284 -9.5695 -8.9204 -9.75751C-4.27477 -11.1606 0.657051 -11.6096 5.5877 -11.0625C8.00561 -10.7962 10.407 -10.276 12.7237 -9.51578C13.3414 -9.31317 13.6765 -8.65222 13.4715 -8.04089C13.3084 -7.54984 12.8479 -7.23922 12.3539 -7.23922ZM29.7263 -3.23612C29.4283 -3.23612 29.1303 -3.34705 28.9012 -3.5701C28.5738 -3.8889 28.2405 -4.20128 27.9019 -4.50781C27.422 -4.94281 27.3878 -5.68142 27.826 -6.15787C28.2647 -6.63315 29.0096 -6.6676 29.4901 -6.23319C29.8499 -5.90738 30.2032 -5.57574 30.5507 -5.23767C31.0153 -4.78574 31.0224 -4.04655 30.5672 -3.58645C30.3363 -3.35289 30.0307 -3.23612 29.7263 -3.23612ZM25.5665 0.72378C25.2709 0.72378 24.9752 0.614594 24.7468 0.394468C24.4188 0.0797558 24.0849 -0.229702 23.7445 -0.530987C23.2593 -0.961308 23.2174 -1.69934 23.6509 -2.17987C24.0854 -2.66041 24.8286 -2.70245 25.3144 -2.27271C25.6789 -1.94924 26.0358 -1.61934 26.3868 -1.28186C26.8538 -0.833437 26.8649 -0.0942421 26.4121 0.369362C26.1813 0.605251 25.8745 0.72378 25.5665 0.72378ZM-31.2163 2.00191C-31.456 2.00191 -31.6968 1.93009 -31.9053 1.78061C-32.4329 1.40226 -32.5507 0.671818 -32.1703 0.149826C-27.8674 -5.74973 -22.0723 -10.4401 -15.4115 -13.4144C-14.8173 -13.68 -14.1201 -13.4173 -13.8539 -12.8293C-13.5866 -12.2413 -13.851 -11.5494 -14.444 -11.2849C-20.7302 -8.47822 -26.1997 -4.05063 -30.2606 1.51845C-30.4914 1.83433 -30.8512 2.00191 -31.2163 2.00191ZM-3.16065 2.94195C-3.70713 2.94195 -4.19648 2.56359 -4.31249 2.01241C-4.44558 1.38123 -4.03631 0.762897 -3.39973 0.630941C-2.91097 0.529928 -2.4169 0.444098 -1.93049 0.3752C-1.28803 0.284698 -0.690323 0.726114 -0.59787 1.36547C-0.505417 2.00365 -0.952961 2.59513 -1.59719 2.68679C-2.03413 2.74869 -2.47932 2.82634 -2.91921 2.91743C-2.99989 2.93378 -3.08115 2.94195 -3.16065 2.94195ZM-37.7117 15.9544C-37.8035 15.9544 -37.896 15.9445 -37.989 15.9217C-38.6215 15.7705 -39.0101 15.1399 -38.8576 14.5122C-38.7428 14.0416 -38.6197 13.5739 -38.489 13.1091C-38.3135 12.4879 -37.6657 12.1253 -37.038 12.2975C-36.4114 12.4709 -36.0451 13.1155 -36.22 13.7362C-36.3431 14.1747 -36.4597 14.6161 -36.5675 15.061C-36.6982 15.5959 -37.1799 15.9544 -37.7117 15.9544ZM-13.4701 16.7566C-13.6703 16.7566 -13.8729 16.7064 -14.059 16.6002C-14.6219 16.2767 -14.8139 15.562 -14.4883 15.0038C-14.2356 14.5723 -13.9636 14.1455 -13.678 13.738C-13.3081 13.2084 -12.5726 13.0753 -12.0397 13.4431C-11.505 13.8104 -11.3713 14.5379 -11.7423 15.0681C-11.9914 15.4242 -12.2287 15.7967 -12.449 16.1739C-12.6675 16.5482 -13.0632 16.7566 -13.4701 16.7566ZM16.7805 17.3353C16.3588 17.3353 15.9502 17.1105 15.7388 16.7146C15.6493 16.547 15.5568 16.3806 15.4602 16.2154C15.3495 16.0233 15.2335 15.8394 15.1169 15.6554C14.9679 15.4219 14.816 15.1866 14.6535 14.9594C14.5952 14.8771 14.538 14.8024 14.4797 14.7282L14.3785 14.5951C13.4192 13.3252 12.3209 12.238 11.1137 11.3627L10.9288 11.2249C10.8688 11.1794 10.8093 11.1344 10.7475 11.0912C10.5125 10.9266 10.2687 10.7742 10.0249 10.6218C9.84884 10.5126 9.67041 10.4016 9.48727 10.2977C9.27468 10.1769 9.06151 10.063 8.84599 9.95264C8.60337 9.82886 8.35369 9.70975 8.10047 9.59647C7.90202 9.50714 7.74008 9.43415 7.57637 9.36759C7.24896 9.23505 6.89505 9.10659 6.52582 8.9869L6.37212 8.93377C6.32384 8.91625 6.27555 8.89931 6.22609 8.88472C5.25503 8.58986 4.251 8.38608 3.23755 8.27865C2.87833 8.24128 2.51205 8.22843 2.12516 8.21442C2.00386 8.20975 1.90964 8.20391 1.81601 8.19749C1.71884 8.19106 1.62109 8.18348 1.52157 8.18348C-1.50878 8.18348 -4.44549 9.01259 -6.99002 10.5827C-7.54297 10.9225 -8.26905 10.7555 -8.61237 10.2078C-8.95568 9.66012 -8.78667 8.94019 -8.23431 8.5992C-5.31585 6.79909 -1.94925 5.84794 1.50096 5.84794C1.67939 5.84853 1.82837 5.85728 1.97736 5.86779C2.04802 5.87247 2.11869 5.87714 2.18994 5.88005C2.61923 5.89524 3.04322 5.90983 3.48605 5.95596C4.65026 6.07916 5.8021 6.31271 6.9133 6.65078C6.99398 6.6753 7.07701 6.70333 7.16004 6.73252L7.26545 6.76931C7.68119 6.90419 8.0881 7.05191 8.46793 7.20605C8.66049 7.28488 8.84952 7.36896 9.03737 7.45362C9.35889 7.59784 9.64509 7.73388 9.92657 7.87752C10.1763 8.00597 10.4206 8.1356 10.6597 8.27222C10.8676 8.39017 11.0725 8.51687 11.2774 8.64416C11.5589 8.81932 11.8363 8.99449 12.1054 9.1825C12.1902 9.24206 12.2738 9.30453 12.3569 9.36759L12.5023 9.47561C13.8997 10.4892 15.164 11.7399 16.2634 13.1949L16.353 13.3111C16.4295 13.4104 16.5055 13.5102 16.5779 13.6118C16.761 13.8682 16.9359 14.1379 17.1091 14.4088C17.2445 14.6214 17.3758 14.8327 17.5013 15.0488C17.6102 15.2356 17.7168 15.4271 17.8204 15.621C18.1249 16.1903 17.9058 16.8974 17.3311 17.1998C17.155 17.2921 16.9666 17.3353 16.7805 17.3353ZM-32.7868 20.9851C-32.8363 20.9851 -32.8858 20.9822 -32.9358 20.9764C-33.5818 20.8952 -34.0382 20.3113 -33.9575 19.6714C-32.7244 9.98184 -27.411 1.13075 -19.3799 -4.61175C-18.8517 -4.98835 -18.115 -4.87099 -17.7358 -4.34783C-17.3548 -3.82526 -17.4744 -3.0954 -18.002 -2.71763C-25.5048 2.64768 -30.469 10.9143 -31.6203 19.9633C-31.6957 20.5542 -32.2027 20.9851 -32.7868 20.9851ZM24.1773 21.339C23.6055 21.339 23.1038 20.9256 23.0143 20.3475C22.9813 20.1303 22.9442 19.9143 22.8995 19.7012C22.8683 19.5558 22.8288 19.4139 22.7893 19.2714C22.7587 19.1587 22.7275 19.046 22.6987 18.9328L22.6574 18.7652C22.5544 18.3501 22.4566 17.9583 22.3377 17.5834C22.2917 17.4415 22.237 17.302 22.1828 17.1619C22.1422 17.0568 22.1021 16.9517 22.0633 16.846L22.0244 16.7368C21.8748 16.3222 21.7341 15.9299 21.5704 15.5568C21.5115 15.4201 21.4438 15.2882 21.3778 15.1556C21.3289 15.0587 21.2801 14.9618 21.2335 14.8637L21.1929 14.7784C20.9986 14.3744 20.8148 13.9925 20.6111 13.6294C20.5375 13.4986 20.4568 13.3713 20.3761 13.244L20.2148 12.9853C19.9898 12.614 19.7343 12.1948 19.4699 11.8152C19.3827 11.6926 19.2897 11.5718 19.196 11.4515L19.0176 11.2185C18.7344 10.8407 18.4546 10.4735 18.1596 10.129C18.053 10.004 17.9394 9.88433 17.8269 9.76405L17.6514 9.57487C17.3499 9.24731 17.0278 8.90107 16.6957 8.58227C16.5691 8.46082 16.4377 8.3458 16.3064 8.2296L16.1239 8.06729C15.7982 7.77593 15.4478 7.46764 15.0898 7.1862C14.9349 7.06359 14.7777 6.94973 14.6205 6.83587L14.4474 6.70976C14.1258 6.47503 13.7425 6.19944 13.3532 5.94896C13.1524 5.8205 12.9451 5.69964 12.7373 5.57819L12.6401 5.52039C12.3292 5.33763 11.9211 5.10116 11.5047 4.88804L11.437 4.85359C10.8588 4.5599 10.6297 3.85573 10.9259 3.28178C11.2221 2.70899 11.9305 2.47952 12.5111 2.77497L12.5918 2.81642C13.0564 3.05348 13.5046 3.31331 13.8414 3.51241L13.9356 3.56671C14.1706 3.70451 14.4044 3.84172 14.634 3.98886C15.0763 4.27321 15.495 4.57391 15.8459 4.83024L16.0114 4.95052C16.1951 5.08422 16.3789 5.21735 16.5573 5.35923C16.9636 5.6792 17.3481 6.01727 17.7026 6.33432L17.8728 6.48496C18.0283 6.62276 18.1832 6.75997 18.3333 6.90361C18.7149 7.26912 19.0647 7.64631 19.3915 8.00131L19.5523 8.17414C19.6889 8.32011 19.825 8.46549 19.9551 8.6173C20.2949 9.01435 20.5993 9.41372 20.9061 9.82244L21.0657 10.0309C21.1811 10.1798 21.296 10.3287 21.4043 10.4834C21.7129 10.9254 21.9885 11.3785 22.2317 11.779L22.373 12.005C22.4743 12.1656 22.575 12.3261 22.6686 12.492C22.9095 12.9211 23.1173 13.3549 23.3193 13.7747L23.486 14.114C23.5714 14.2839 23.6562 14.4538 23.7327 14.6296C23.9259 15.0727 24.0872 15.5194 24.2421 15.9509L24.281 16.0577C24.3134 16.1471 24.3481 16.237 24.3828 16.3263C24.4529 16.5079 24.5224 16.6907 24.5825 16.8769C24.7262 17.3259 24.8369 17.7738 24.9446 18.207L24.9853 18.3711C25.0088 18.4662 25.0353 18.5608 25.0612 18.6554C25.113 18.8429 25.1643 19.0303 25.2043 19.2224C25.2585 19.4764 25.3033 19.7344 25.3433 19.9949C25.441 20.6325 24.9994 21.228 24.3569 21.3255C24.2963 21.3349 24.2368 21.339 24.1773 21.339ZM41.6856 28.6398C41.6538 28.6398 41.6209 28.6387 41.5879 28.6357C40.9401 28.5826 40.4572 28.0186 40.5108 27.3763C40.5998 26.3084 40.6445 25.2218 40.6445 24.1474C40.6451 18.3109 39.3714 12.7016 36.8592 7.47347C36.5795 6.89134 36.8286 6.19418 37.4157 5.91684C38.0016 5.64066 38.7059 5.88589 38.9856 6.46861C41.6503 12.0132 43.0006 17.9612 43 24.1474C43 25.2854 42.9523 26.4351 42.8587 27.5678C42.808 28.178 42.2928 28.6398 41.6856 28.6398ZM-21.2031 29.2266C-21.7655 29.2266 -22.2625 28.8261 -22.362 28.2568C-22.5976 26.9098 -22.7171 25.526 -22.7171 24.1445C-22.7171 23.4491 -22.6865 22.7409 -22.6264 22.0396C-21.9504 14.2062 -17.3584 7.17569 -10.3431 3.23273C-9.77662 2.91568 -9.05878 3.11245 -8.73784 3.67298C-8.41749 4.23409 -8.61594 4.94701 -9.18126 5.26522C-15.5211 8.8275 -19.6697 15.1726 -20.2786 22.2387C-20.334 22.874 -20.3616 23.5151 -20.3616 24.1445C-20.3616 25.3929 -20.2539 26.6424 -20.0413 27.8598C-19.93 28.495 -20.3599 29.0993 -21.0011 29.2085C-21.0689 29.2208 -21.136 29.2266 -21.2031 29.2266ZM-32.8204 29.3971C-33.4081 29.3971 -33.9163 28.961 -33.9882 28.3677C-34.0459 27.8884 -34.0936 27.4049 -34.1319 26.9203C-34.1825 26.278 -33.6973 25.7163 -33.0489 25.6661C-32.4065 25.6147 -31.8341 26.0964 -31.7828 26.7399C-31.7475 27.1924 -31.7033 27.6431 -31.6492 28.0898C-31.572 28.7309 -32.0331 29.3125 -32.6791 29.389C-32.7268 29.3942 -32.7739 29.3971 -32.8204 29.3971ZM35.1998 32.9524C35.1127 32.9524 35.0249 32.9442 34.9366 32.9244C34.3024 32.7807 33.9055 32.1548 34.0504 31.526C34.6033 29.1204 34.8842 26.6377 34.8842 24.1474C34.8842 22.7578 34.7959 21.3448 34.6222 19.9464C33.9891 14.8456 32.0959 9.87849 29.1474 5.58227C28.7817 5.04919 28.9213 4.32284 29.4589 3.96025C29.9954 3.59824 30.7291 3.73487 31.0948 4.26854C34.2529 8.87012 36.2816 14.1928 36.9606 19.6615C37.1455 21.1533 37.2397 22.6626 37.2397 24.1474C37.2397 26.8123 36.9394 29.4695 36.347 32.045C36.2221 32.5863 35.7369 32.9524 35.1998 32.9524ZM4.3793 42.1929C3.81457 42.1929 3.31579 41.7889 3.21863 41.2184C3.11145 40.5826 3.54369 39.9806 4.18556 39.8732C7.51564 39.3185 10.5295 37.7794 12.9003 35.4228L12.9339 35.3813C12.9851 35.3224 13.0363 35.2628 13.0911 35.2079C13.4662 34.8226 13.8354 34.4004 14.1905 33.9502L14.29 33.8189C14.5774 33.4464 14.8595 33.0452 15.1268 32.626C15.1875 32.5291 15.2487 32.4275 15.3094 32.3259C15.5208 31.9785 15.7269 31.6036 15.9254 31.2072C15.9937 31.07 16.0643 30.9304 16.1303 30.7868C16.2781 30.4697 16.4247 30.1147 16.5802 29.7019L16.6338 29.5583C16.6803 29.4386 16.7262 29.3195 16.7663 29.1974C16.8917 28.8278 16.9971 28.4361 17.0831 28.1015L17.1402 27.8901C17.1708 27.7769 17.202 27.6647 17.2274 27.5503C17.2739 27.3343 17.3139 27.113 17.3492 26.8905C17.4511 26.2541 18.053 25.8214 18.6972 25.9201C19.3396 26.0199 19.7778 26.619 19.6759 27.2566C19.6335 27.5223 19.5858 27.7868 19.5287 28.0478C19.4945 28.2037 19.4539 28.352 19.4133 28.4997L19.3644 28.683C19.2678 29.0567 19.1488 29.4981 19.001 29.9361C18.951 30.0849 18.8945 30.2344 18.8379 30.3839L18.7873 30.517C18.6112 30.9847 18.4422 31.3928 18.2702 31.7619C18.1955 31.9248 18.116 32.0847 18.0359 32.2453C17.8086 32.699 17.5713 33.1293 17.3304 33.5264C17.2627 33.6396 17.1926 33.7552 17.1202 33.8708C16.8128 34.352 16.4901 34.8115 16.1591 35.24L16.0472 35.3872C15.6397 35.9039 15.2163 36.3874 14.7871 36.8282L14.7229 36.9006C14.6811 36.9485 14.6393 36.9964 14.5951 37.0425C11.848 39.7751 8.39306 41.5396 4.57598 42.176C4.51003 42.1877 4.44349 42.1929 4.3793 42.1929ZM-12.4531 42.6641C-13.4383 42.6641 -14.3622 42.2875 -15.126 41.5734C-15.9964 40.7601 -16.8119 39.8749 -17.551 38.9442C-17.9538 38.4374 -17.866 37.7029 -17.3543 37.3047C-16.8426 36.9059 -16.1029 36.9917 -15.7007 37.4997C-15.033 38.3405 -14.2957 39.1392 -13.5101 39.8743C-13.1874 40.1762 -12.8317 40.3286 -12.4531 40.3286C-11.5462 40.3286 -10.6564 39.4709 -10.6564 38.5956C-10.6564 38.2634 -10.7878 37.9388 -11.0463 37.6311C-11.2477 37.3905 -11.4579 37.1604 -11.6681 36.9485C-13.7398 34.8599 -15.2885 32.2879 -16.1495 29.5081C-16.3403 28.8909 -15.9905 28.2381 -15.3686 28.0489C-14.7468 27.8609 -14.0884 28.2066 -13.897 28.8226C-13.1474 31.2457 -11.7959 33.4878 -9.99043 35.3101C-9.73426 35.567 -9.47987 35.8455 -9.23549 36.1369C-8.62365 36.8662 -8.30095 37.7163 -8.30095 38.5956C-8.30095 40.7624 -10.2413 42.6641 -12.4531 42.6641ZM-30.78 49.269C-31.1386 49.269 -31.4919 49.1067 -31.7234 48.8019C-37.1381 41.6452 -40 33.1205 -40 24.148C-40 23.3177 -39.9747 22.4804 -39.9252 21.6595C-39.8863 21.0149 -39.3357 20.5174 -38.6797 20.5635C-38.0308 20.6015 -37.5356 21.1544 -37.5744 21.7985C-37.6209 22.5733 -37.6445 23.3644 -37.6445 24.148C-37.6445 32.6108 -34.9451 40.6509 -29.8396 47.4006C-29.4486 47.9156 -29.554 48.6472 -30.0745 49.0343C-30.2859 49.1931 -30.5344 49.269 -30.78 49.269ZM4.38048 50.3305C3.72977 50.3305 3.20273 49.8079 3.20273 49.1628V46.7945C3.20273 46.2066 3.64497 45.7097 4.23444 45.6367C9.29227 45.0102 14.0015 42.6133 17.4947 38.8899L17.6137 38.7603C18.5364 37.7665 19.3803 36.649 20.197 35.3399C20.2936 35.1869 20.389 35.0351 20.4791 34.8804C20.6505 34.5814 20.8148 34.2749 20.9738 33.9649C21.1133 33.6957 21.2435 33.4236 21.3701 33.1492L21.4443 32.9892C21.5467 32.7673 21.6498 32.546 21.7428 32.3189C21.9372 31.8494 22.115 31.3753 22.2705 30.9088C22.4748 30.2975 23.1373 29.9623 23.7586 30.1684C24.3757 30.371 24.7108 31.0308 24.5064 31.6439C24.3339 32.1601 24.1378 32.6844 23.9229 33.2046C23.8174 33.461 23.7014 33.7114 23.5854 33.9631L23.5112 34.1225C23.3687 34.4308 23.225 34.7303 23.0719 35.0275C22.8964 35.3685 22.7151 35.7077 22.5225 36.0411C22.4171 36.2233 22.3076 36.3979 22.1986 36.5725C21.3041 38.0053 20.3719 39.2379 19.3502 40.3385L19.2213 40.4792C15.5885 44.3516 10.7692 46.9271 5.55822 47.8035V49.1628C5.55822 49.8079 5.03059 50.3305 4.38048 50.3305ZM-12.7829 56.5185C-12.946 56.5185 -13.1109 56.4841 -13.2693 56.4134C-20.0248 53.3696 -25.5838 48.4008 -29.3461 42.0475C-29.6753 41.4905 -29.4875 40.7753 -28.9269 40.4483C-28.3651 40.1225 -27.6437 40.3093 -27.3145 40.8646C-23.7995 46.8021 -18.6057 51.4428 -12.2953 54.2869C-11.7029 54.5537 -11.4408 55.2462 -11.7094 55.833C-11.9072 56.2634 -12.3353 56.5185 -12.7829 56.5185ZM15.0344 56.8344C14.5763 56.8344 14.1411 56.5676 13.9503 56.1238C13.6953 55.5294 13.9739 54.8445 14.5716 54.5917C20.9491 51.8982 26.2519 47.379 29.9088 41.5256C30.2509 40.9773 30.9764 40.808 31.53 41.1478C32.0835 41.487 32.2543 42.2069 31.9115 42.7552C27.9979 49.0215 22.3211 53.8572 15.4955 56.7404C15.3448 56.804 15.1881 56.8344 15.0344 56.8344ZM4.38047 58.7647C3.72977 58.7647 3.20273 58.2427 3.20273 57.597V56.1915C3.20273 55.5469 3.72977 55.0238 4.38047 55.0238C5.03059 55.0238 5.55822 55.5469 5.55822 56.1915V57.597C5.55822 58.2427 5.03059 58.7647 4.38047 58.7647ZM-1.37991 59.4566C-1.4123 59.4566 -1.44527 59.4554 -1.47766 59.4525C-1.64902 59.4385 -1.82039 59.4222 -1.99175 59.4064C-2.63892 59.3445 -3.11296 58.7735 -3.04937 58.1312C-3.01521 57.7803 -2.82677 57.4802 -2.55766 57.291V40.2141C-2.55766 39.569 -2.03062 39.0464 -1.37991 39.0464C-0.729794 39.0464 -0.20216 39.569 -0.20216 40.2141V58.2888C-0.20216 58.6158 -0.340546 58.927 -0.582573 59.1483C-0.801044 59.3474 -1.08547 59.4566 -1.37991 59.4566ZM20.9437 60.3377C20.5286 60.3377 20.1258 60.1199 19.9109 59.734C19.597 59.1688 19.8043 58.4582 20.3737 58.147C28.4943 53.7089 34.7835 46.5493 38.0817 37.986C38.3138 37.3823 38.9927 37.0804 39.6022 37.3117C40.2099 37.5417 40.5144 38.2167 40.2824 38.8187C36.785 47.8975 30.119 55.488 21.5114 60.1929C21.3306 60.291 21.1357 60.3377 20.9437 60.3377ZM13.1153 63.5993C12.6089 63.5993 12.1413 63.2723 11.9882 62.7672C11.8004 62.1489 12.1537 61.4985 12.7767 61.3128C13.2172 61.1814 13.6541 61.043 14.0881 60.897C14.7076 60.6874 15.373 61.0185 15.5815 61.6287C15.7906 62.24 15.4596 62.9015 14.8437 63.1094C14.3843 63.2635 13.9209 63.4101 13.4551 63.549C13.342 63.5817 13.2278 63.5993 13.1153 63.5993ZM-3.30966 65C-3.35618 65 -3.40329 64.9971 -3.4504 64.9924C-10.7224 64.1341 -17.6599 61.3612 -23.5128 56.9734C-24.0316 56.5839 -24.1346 55.8517 -23.7424 55.3367C-23.3502 54.8223 -22.6124 54.7213 -22.0924 55.1102C-16.5717 59.2493 -10.0293 61.864 -3.17186 62.6726C-2.52645 62.7491 -2.06536 63.3301 -2.14133 63.9706C-2.21317 64.5638 -2.72137 65 -3.30966 65Z" fill="white"/>
<path fill-rule="evenodd" clip-rule="evenodd" d="M-9.96358 -0.488405C-10.4164 -0.488405 -10.8475 -0.748816 -11.0418 -1.18556C-11.3039 -1.77587 -11.0342 -2.46543 -10.4394 -2.72526C-9.99008 -2.92145 -9.53547 -3.10712 -9.07674 -3.2817C-8.47137 -3.51234 -7.78946 -3.21397 -7.55509 -2.6114C-7.3213 -2.00942 -7.62399 -1.33387 -8.2317 -1.10265C-8.65451 -0.94033 -9.07438 -0.769252 -9.48895 -0.588249C-9.64382 -0.521102 -9.80459 -0.488405 -9.96358 -0.488405ZM23.4373 7.36891C23.0976 7.36891 22.7601 7.22411 22.5275 6.94385C18.8365 2.50049 13.9035 -0.604599 8.26029 -2.03686C7.22446 -2.29961 6.16861 -2.50397 5.12218 -2.64352C4.47736 -2.73052 4.0257 -3.31849 4.11226 -3.95726C4.2 -4.59719 4.79948 -5.04095 5.43723 -4.95862C6.57375 -4.80681 7.7197 -4.58493 8.84386 -4.29941C14.9752 -2.74336 20.3352 0.630898 24.346 5.45903C24.7594 5.9565 24.6875 6.69278 24.1852 7.10266C23.9662 7.28191 23.7006 7.36891 23.4373 7.36891ZM-26.8307 27.8574C-27.4332 27.8574 -27.9473 27.4014 -28.0026 26.7947C-28.0815 25.9276 -28.1216 25.0442 -28.1221 24.1684C-28.1221 21.719 -27.8089 19.262 -27.19 16.8658C-25.5529 10.5242 -21.9449 5.04623 -16.7557 1.02444C-16.2446 0.627398 -15.5038 0.716148 -15.1033 1.22529C-14.7023 1.73327 -14.7924 2.46721 -15.3053 2.86367C-20.0805 6.56608 -23.4006 11.6079 -24.9081 17.445C-25.4781 19.6521 -25.7666 21.9146 -25.7666 24.1684C-25.7661 24.973 -25.729 25.7869 -25.6559 26.5845C-25.5982 27.2268 -26.0752 27.7937 -26.7236 27.8527C-26.7595 27.8556 -26.7954 27.8574 -26.8307 27.8574ZM23.1482 43.6088C22.8779 43.6088 22.6058 43.5177 22.3844 43.3303C21.8891 42.9117 21.8303 42.1736 22.2525 41.6843C24.9625 38.5354 26.8651 34.8908 27.9086 30.8504C28.4781 28.6439 28.7672 26.3819 28.7672 24.1275C28.7672 21.5088 28.3809 18.9059 27.6183 16.3911C27.431 15.7739 27.7844 15.1217 28.4068 14.9366C29.0316 14.7521 29.687 15.1013 29.8737 15.7185C30.7034 18.4516 31.1227 21.2811 31.1227 24.1275C31.1227 26.5769 30.8088 29.0339 30.1905 31.4296C29.0575 35.8181 26.9894 39.7785 24.0444 43.1995C23.8112 43.4704 23.4809 43.6088 23.1482 43.6088ZM16.7477 49.1166C16.3584 49.1166 15.9774 48.9251 15.7525 48.5742C15.4039 48.0311 15.5664 47.3083 16.1152 46.9632C16.498 46.7209 16.8749 46.4716 17.2447 46.2112C17.7765 45.8404 18.5114 45.9659 18.8865 46.492C19.2616 47.0187 19.135 47.7468 18.6044 48.1199C18.2022 48.4002 17.7941 48.6728 17.3784 48.9344C17.1829 49.057 16.9644 49.1166 16.7477 49.1166ZM-7.82835 51.9531C-7.95613 51.9531 -8.08627 51.9326 -8.21347 51.8889C-15.2817 49.4646 -21.1169 44.5097 -24.6454 37.9393C-24.9505 37.3712 -24.7332 36.6641 -24.1584 36.3599C-23.5843 36.0574 -22.8717 36.2746 -22.5655 36.8433C-19.3185 42.8906 -13.9479 47.4508 -7.44322 49.6824C-6.82844 49.8926 -6.50279 50.5582 -6.71537 51.1678C-6.88438 51.6506 -7.34017 51.9531 -7.82835 51.9531Z" fill="#D3D3D3"/>
<path fill-rule="evenodd" clip-rule="evenodd" d="M-0.611814 23.0368C-0.405708 22.4705 -0.571771 21.837 -1.02874 21.4422C-2.17704 20.4485 -2.64402 18.9607 -2.27833 17.4602C-1.94208 16.0799 -0.777288 14.9384 0.62011 14.6196C0.915725 14.5518 1.21016 14.5174 1.49989 14.511C1.5205 14.5104 1.54052 14.508 1.56113 14.5086C1.58233 14.508 1.60235 14.5104 1.62296 14.511C1.91269 14.5174 2.20713 14.5518 2.50274 14.6196C3.90014 14.9384 5.06493 16.0799 5.40118 17.4602C5.76687 18.9607 5.29989 20.4485 4.15159 21.4422C3.69403 21.837 3.52856 22.4705 3.73467 23.0368L6.96641 31.9288H1.58704H1.53522H-3.84356L-0.611814 23.0368ZM-2.6199 34.8482H1.53519H1.58702H5.7427H7.81318C8.57695 34.8482 9.29597 34.478 9.73527 33.8574C10.0497 33.413 10.1916 32.8782 10.1528 32.3492C10.1716 32.1448 10.1492 31.9335 10.0745 31.7285L6.86863 22.9084C7.92742 21.6735 8.51983 20.1011 8.51983 18.4633C8.51983 16.3566 7.56585 14.3954 5.90228 13.0822C5.60373 12.8469 5.28456 12.6484 4.95714 12.4674C4.93594 12.4551 4.91415 12.444 4.89295 12.4323C4.65152 12.3021 4.40419 12.1871 4.1498 12.0867C4.10975 12.0709 4.0703 12.0528 4.02966 12.0376C3.30123 11.7661 2.53098 11.6184 1.74483 11.6003C1.683 11.5986 1.62235 11.591 1.5611 11.591C1.50045 11.591 1.43862 11.5986 1.37796 11.6003C0.591818 11.6184 -0.179018 11.7661 -0.906867 12.0376C-0.947499 12.0528 -0.986954 12.0709 -1.02759 12.0867C-1.28139 12.1871 -1.52872 12.3021 -1.77016 12.4323C-1.79136 12.444 -1.81314 12.4551 -1.83434 12.4674C-2.16176 12.6484 -2.48093 12.8469 -2.77949 13.0822C-4.44306 14.3954 -5.39703 16.3566 -5.39703 18.4633C-5.39703 20.1011 -4.80462 21.6735 -3.74583 22.9084L-6.95225 31.7285C-7.02703 31.9335 -7.04882 32.1448 -7.02998 32.3486C-7.06943 32.8782 -6.9281 33.413 -6.61247 33.8574C-6.17317 34.478 -5.45474 34.8482 -4.69038 34.8482H-3.84358H-2.6199Z" fill="#D3D3D3"/>
</g>
<path d="M86.2848 29.5H82.1598V17.8636H86.3189C87.4893 17.8636 88.4969 18.0966 89.3416 18.5625C90.1863 19.0246 90.8359 19.6894 91.2905 20.5568C91.7488 21.4242 91.978 22.4621 91.978 23.6705C91.978 24.8826 91.7488 25.9242 91.2905 26.7955C90.8359 27.6667 90.1825 28.3352 89.3303 28.8011C88.4818 29.267 87.4666 29.5 86.2848 29.5ZM84.62 27.392H86.1825C86.9098 27.392 87.5215 27.2633 88.0178 27.0057C88.5178 26.7443 88.8928 26.3409 89.1428 25.7955C89.3965 25.2462 89.5234 24.5379 89.5234 23.6705C89.5234 22.8106 89.3965 22.108 89.1428 21.5625C88.8928 21.017 88.5196 20.6155 88.0234 20.358C87.5272 20.1004 86.9155 19.9716 86.1882 19.9716H84.62V27.392ZM96.2436 29.6648C95.6868 29.6648 95.1906 29.5682 94.755 29.375C94.3194 29.178 93.9747 28.8883 93.7209 28.5057C93.4709 28.1193 93.3459 27.6383 93.3459 27.0625C93.3459 26.5777 93.4349 26.1705 93.6129 25.8409C93.791 25.5114 94.0334 25.2462 94.3402 25.0455C94.647 24.8447 94.9955 24.6932 95.3857 24.5909C95.7796 24.4886 96.1925 24.4167 96.6243 24.375C97.1319 24.322 97.541 24.2727 97.8516 24.2273C98.1622 24.178 98.3875 24.1061 98.5277 24.0114C98.6679 23.9167 98.7379 23.7765 98.7379 23.5909V23.5568C98.7379 23.197 98.6243 22.9186 98.397 22.7216C98.1735 22.5246 97.8554 22.4261 97.4425 22.4261C97.0069 22.4261 96.6603 22.5227 96.4027 22.7159C96.1451 22.9053 95.9747 23.1439 95.8913 23.4318L93.6527 23.25C93.7663 22.7197 93.9898 22.2614 94.3232 21.875C94.6565 21.4848 95.0864 21.1856 95.6129 20.9773C96.1432 20.7652 96.7569 20.6591 97.4538 20.6591C97.9387 20.6591 98.4027 20.7159 98.8459 20.8295C99.2929 20.9432 99.6887 21.1193 100.033 21.358C100.382 21.5966 100.656 21.9034 100.857 22.2784C101.058 22.6496 101.158 23.0947 101.158 23.6136V29.5H98.8629V28.2898H98.7947C98.6546 28.5625 98.4671 28.803 98.2322 29.0114C97.9974 29.2159 97.7152 29.3769 97.3857 29.4943C97.0561 29.608 96.6754 29.6648 96.2436 29.6648ZM96.9368 27.9943C97.2929 27.9943 97.6072 27.9242 97.88 27.7841C98.1527 27.6402 98.3667 27.447 98.522 27.2045C98.6773 26.9621 98.755 26.6875 98.755 26.3807V25.4545C98.6792 25.5038 98.575 25.5492 98.4425 25.5909C98.3137 25.6288 98.1679 25.6648 98.005 25.6989C97.8421 25.7292 97.6792 25.7576 97.5163 25.7841C97.3535 25.8068 97.2057 25.8277 97.0732 25.8466C96.7891 25.8883 96.541 25.9545 96.3288 26.0455C96.1167 26.1364 95.9519 26.2595 95.8345 26.4148C95.7171 26.5663 95.6584 26.7557 95.6584 26.983C95.6584 27.3125 95.7777 27.5644 96.0163 27.7386C96.2588 27.9091 96.5656 27.9943 96.9368 27.9943ZM105.059 20.7727L106.661 23.8239L108.303 20.7727H110.786L108.258 25.1364L110.854 29.5H108.383L106.661 26.483L104.968 29.5H102.468L105.059 25.1364L102.559 20.7727H105.059ZM112.224 29.5V20.7727H114.644V29.5H112.224ZM113.44 19.6477C113.08 19.6477 112.771 19.5284 112.513 19.2898C112.26 19.0473 112.133 18.7576 112.133 18.4205C112.133 18.0871 112.26 17.8011 112.513 17.5625C112.771 17.3201 113.08 17.1989 113.44 17.1989C113.799 17.1989 114.106 17.3201 114.36 17.5625C114.618 17.8011 114.746 18.0871 114.746 18.4205C114.746 18.7576 114.618 19.0473 114.36 19.2898C114.106 19.5284 113.799 19.6477 113.44 19.6477ZM119.004 17.8636V29.5H116.583V17.8636H119.004ZM128.589 29.6705C127.706 29.6705 126.943 29.483 126.299 29.108C125.659 28.7292 125.165 28.2027 124.816 27.5284C124.468 26.8504 124.293 26.0644 124.293 25.1705C124.293 24.2689 124.468 23.4811 124.816 22.8068C125.165 22.1288 125.659 21.6023 126.299 21.2273C126.943 20.8485 127.706 20.6591 128.589 20.6591C129.471 20.6591 130.233 20.8485 130.873 21.2273C131.517 21.6023 132.013 22.1288 132.362 22.8068C132.71 23.4811 132.884 24.2689 132.884 25.1705C132.884 26.0644 132.71 26.8504 132.362 27.5284C132.013 28.2027 131.517 28.7292 130.873 29.108C130.233 29.483 129.471 29.6705 128.589 29.6705ZM128.6 27.7955C129.002 27.7955 129.337 27.6818 129.606 27.4545C129.875 27.2235 130.077 26.9091 130.214 26.5114C130.354 26.1136 130.424 25.661 130.424 25.1534C130.424 24.6458 130.354 24.1932 130.214 23.7955C130.077 23.3977 129.875 23.0833 129.606 22.8523C129.337 22.6212 129.002 22.5057 128.6 22.5057C128.195 22.5057 127.854 22.6212 127.577 22.8523C127.305 23.0833 127.098 23.3977 126.958 23.7955C126.822 24.1932 126.754 24.6458 126.754 25.1534C126.754 25.661 126.822 26.1136 126.958 26.5114C127.098 26.9091 127.305 27.2235 127.577 27.4545C127.854 27.6818 128.195 27.7955 128.6 27.7955ZM136.879 17.8636V29.5H134.458V17.8636H136.879Z" fill="white"/>
<rect x="0.5" y="0.5" width="180" height="47" rx="9.5" stroke="#2B76C7"/>
<defs>
<clipPath id="clip0_1117_2033">
<rect width="43" height="48" fill="white"/>
</clipPath>
</defs>
</svg>
