<svg width="214" height="62" viewBox="0 0 214 62" fill="none" xmlns="http://www.w3.org/2000/svg">
<g clip-path="url(#clip0_1117_2087)">
<path fill-rule="evenodd" clip-rule="evenodd" d="M158.408 38.3375C157.122 39.8435 155.512 41.0384 153.698 41.832C151.884 42.6257 149.913 42.9975 147.935 42.9195C145.864 42.939 143.81 42.5462 141.893 41.764C139.976 40.9818 138.234 39.8259 136.768 38.3636C135.214 36.8961 133.988 35.1173 133.169 33.1433C132.35 31.1694 131.957 29.0448 132.015 26.9085C131.959 24.772 132.355 22.6478 133.179 20.6757C134.003 18.7035 135.235 16.9282 136.794 15.4665C138.257 14.0074 139.995 12.8533 141.907 12.0712C143.82 11.2891 145.869 10.8946 147.935 10.9106C149.907 10.8107 151.877 11.1634 153.692 11.9417C155.507 12.72 157.12 13.9033 158.408 15.401L154.48 19.97C153.728 19.1364 152.797 18.4831 151.757 18.0586C150.595 17.5632 149.342 17.3136 148.079 17.3255C146.915 17.3145 145.763 17.553 144.699 18.025C143.635 18.497 142.685 19.1915 141.913 20.0616C141.051 20.9613 140.376 22.0225 139.927 23.1841C139.478 24.3458 139.263 25.5848 139.294 26.83C139.237 29.3671 140.177 31.8256 141.913 33.6769C142.659 34.5475 143.582 35.2498 144.62 35.7373C145.658 36.2247 146.788 36.4863 147.935 36.5046C149.644 36.5742 151.328 36.0771 152.726 35.0908C154.026 34.0849 154.9 32.6268 155.174 31.0062H150.095V26.0314H161.445C162.039 31.268 161.009 35.3875 158.356 38.3898M172.809 26.2409C171.683 27.5648 171.111 29.2714 171.212 31.0062C171.155 31.8541 171.268 32.7048 171.542 33.5092C171.816 34.3136 172.246 35.0557 172.809 35.693C173.287 36.2306 173.874 36.6613 174.531 36.9568C175.187 37.2523 175.898 37.4061 176.618 37.408C177.328 37.4018 178.028 37.2459 178.674 36.9503C179.319 36.6548 179.894 36.2263 180.363 35.693C180.941 35.0636 181.388 34.3245 181.676 33.5195C181.963 32.7144 182.087 31.8598 182.038 31.0062C182.142 29.2563 181.554 27.5358 180.402 26.2147C179.94 25.6709 179.367 25.2328 178.721 24.9301C178.075 24.6274 177.371 24.4672 176.658 24.4604C175.925 24.4606 175.202 24.6199 174.537 24.9273C173.873 25.2348 173.283 25.6829 172.809 26.2409ZM180.454 19.7867C181.819 20.3133 183.095 21.0462 184.238 21.9599C185.512 22.9808 186.529 24.2854 187.209 25.7696C187.986 27.4049 188.38 29.1958 188.361 31.0062C188.385 32.8171 187.991 34.609 187.209 36.2428C186.535 37.7012 185.531 38.983 184.277 39.987C183.133 40.8849 181.856 41.6003 180.493 42.1078C178.029 43.103 175.274 43.103 172.809 42.1078C171.442 41.5919 170.158 40.8773 168.999 39.987C167.738 38.9832 166.725 37.7019 166.04 36.2428C165.265 34.607 164.871 32.8164 164.888 31.0062C164.876 29.1964 165.269 27.4069 166.04 25.7696C166.723 24.3017 167.73 23.0081 168.986 21.9861C170.133 21.0726 171.414 20.3397 172.783 19.8129C174.033 19.3192 175.365 19.0618 176.71 19.0536C178.025 19.0673 179.325 19.3248 180.546 19.8129" fill="#324598"/>
<path fill-rule="evenodd" clip-rule="evenodd" d="M201.191 42.6053H200.17L188.191 19.2892H194.868L200.654 32.1582L206.441 19.2892H213.17L201.191 42.6053Z" fill="#324598"/>
<path fill-rule="evenodd" clip-rule="evenodd" d="M36.6564 21.4624C38.463 23.256 39.3663 26.0314 39.3663 29.8149V42.7886H33.5537V29.8541C33.6526 28.2323 33.1543 26.6303 32.1529 25.3506C31.7197 24.8296 31.1745 24.413 30.558 24.132C29.9414 23.8509 29.2694 23.7126 28.592 23.7273C27.8774 23.7053 27.1661 23.8325 26.5034 24.1007C25.8407 24.3689 25.2412 24.7723 24.743 25.2852C23.6988 26.3859 22.9589 27.7394 22.596 29.2127V42.7886H16.7834V29.8541C16.8762 28.233 16.3786 26.6331 15.3826 25.3506C14.9403 24.8302 14.3878 24.4145 13.7652 24.1338C13.1426 23.853 12.4653 23.7142 11.7824 23.7273C8.64915 23.7273 6.67668 25.5732 5.86501 29.265V42.7886H-1.52588e-05V19.0143H5.81264V23.8713C6.09703 22.5599 6.81683 21.3833 7.85493 20.5329C9.22463 19.3408 11.0031 18.7261 12.8166 18.8179C14.6213 18.7926 16.4006 19.2442 17.9747 20.1271C19.5711 21.0593 20.8175 22.4897 21.5225 24.1986C22.1292 22.7288 23.1362 21.4588 24.4289 20.5329C26.0221 19.3528 27.9727 18.7565 29.9535 18.8441C31.1918 18.8039 32.4254 19.0152 33.5797 19.4652C34.7341 19.9153 35.7852 20.5947 36.6695 21.4624" fill="#4067AD"/>
<path fill-rule="evenodd" clip-rule="evenodd" d="M64.188 19.0143L51.2011 51.4945H45.5587L49.2636 42.1602L39.3794 19.0143H45.0612L52.0128 35.3002L58.5062 19.0143H64.188Z" fill="#4067AD"/>
<path fill-rule="evenodd" clip-rule="evenodd" d="M72.7498 29.1079L77.1224 30.7836C77.1958 30.8195 77.2764 30.8381 77.3581 30.8381C77.4397 30.8381 77.5203 30.8195 77.5937 30.7836L78.8112 30.1683L85.357 26.9347C85.4487 26.9347 85.5927 26.9347 85.5927 26.7645C85.5927 26.5943 85.4487 26.6336 85.357 26.5943L78.0257 23.3345L75.4074 22.1432V22.0385L75.9049 22.2087L78.6541 23.1774L84.3097 25.1281L85.6189 25.5732C85.7552 24.8246 86.0531 24.1147 86.4917 23.493C86.9303 22.8712 87.4991 22.3525 88.1586 21.973L91.3268 20.1009L88.3288 18.9619L78.1043 15.0345C77.7933 14.9106 77.4466 14.9106 77.1355 15.0345C74.7659 16.0556 72.3964 17.0506 70.0268 18.0848C69.4464 18.369 68.9915 18.8578 68.7499 19.4572C68.5082 20.0566 68.4967 20.7242 68.7176 21.3315C69.7912 23.8058 71.0479 26.2016 72.1738 28.6628C72.2302 28.7706 72.3081 28.8658 72.4026 28.9423C72.4972 29.0189 72.6065 29.0752 72.7237 29.1079M83.3278 15.676C83.3662 15.7694 83.4249 15.8531 83.4996 15.921C83.5743 15.9889 83.6632 16.0394 83.7599 16.0687L91.9159 18.9227C92.0075 18.9227 92.1123 19.0274 92.1908 18.9227C92.2694 18.8179 92.1908 18.7263 92.1908 18.6347C92.1968 18.5825 92.1968 18.5298 92.1908 18.4776C91.4053 16.4484 90.6329 14.4192 89.8474 12.3769L88.4074 8.75052H88.4859L89.1143 10.0597L93.0418 18.255L93.356 18.9096L95.5423 17.6004C96.2949 17.1613 97.1453 16.9169 98.0163 16.8895C98.8873 16.8621 99.7513 17.0524 100.53 17.4433C99.9672 16.1996 99.4174 14.9428 98.8544 13.686C97.6064 10.8757 96.3583 8.05231 95.1102 5.2158C94.9908 4.93234 94.7653 4.70682 94.4818 4.5874L87.36 1.65489C87.0349 1.51829 86.6849 1.4509 86.3323 1.45702C85.9797 1.46313 85.6322 1.54261 85.312 1.6904C84.9918 1.83818 84.7059 2.05104 84.4724 2.3154C84.239 2.57976 84.0632 2.88984 83.9562 3.22588C83.1315 5.58236 82.346 7.95194 81.5081 10.3084C81.421 10.5359 81.3818 10.7789 81.3931 11.0222C81.4044 11.2655 81.4658 11.5039 81.5736 11.7223C82.1758 13.0315 82.7649 14.3406 83.354 15.6498" fill="#34479A"/>
<path fill-rule="evenodd" clip-rule="evenodd" d="M102.114 17.823C102.114 17.9277 102.114 18.111 102.337 18.111C102.559 18.111 102.494 17.9277 102.546 17.823L105.557 10.9106L106.866 8.03047C106.874 8.18714 106.848 8.34363 106.788 8.48868C106.317 9.87638 105.845 11.2772 105.361 12.678C104.654 14.7814 103.938 16.8891 103.214 19.0012L108.267 21.973C108.669 22.2078 109.039 22.4938 109.367 22.8239L109.969 21.3446L113.897 10.7535C113.978 10.5794 114.021 10.3895 114.021 10.1971C114.021 10.0048 113.978 9.81483 113.897 9.64074C112.98 7.46754 112.064 5.28124 111.2 3.09495C111.059 2.57778 110.79 2.10474 110.416 1.72009C110.043 1.33544 109.578 1.05175 109.066 0.895569L108.071 0.895569C107.665 1.07885 107.259 1.23595 106.853 1.43232L101.237 4.18155C100.713 4.44338 100.137 4.62667 99.9279 5.33361C99.4697 6.70822 98.9329 8.05666 98.4224 9.41818C98.3649 9.53181 98.3349 9.65738 98.3349 9.78474C98.3349 9.9121 98.3649 10.0377 98.4224 10.1513C99.6792 12.678 100.91 15.2963 102.114 17.823Z" fill="#34479A"/>
<path fill-rule="evenodd" clip-rule="evenodd" d="M112.731 16.7102C111.92 19.1583 111.082 21.6064 110.27 24.0545C110.391 24.2919 110.496 24.5368 110.584 24.7877C111.566 24.3949 112.548 23.9891 113.543 23.6094L118.151 21.8421C118.619 21.6205 119.105 21.4408 119.605 21.3053C119.605 21.4493 119.5 21.4362 119.434 21.4624L114.761 23.7796L110.833 25.7303C110.886 26.0241 110.912 26.322 110.912 26.6205V33.6245L113.281 32.5248L119.932 29.4875L123.532 27.838C123.702 27.7678 123.854 27.6628 123.981 27.5297C124.107 27.3967 124.204 27.2385 124.265 27.0656C124.658 26.0576 125.064 25.0626 125.47 24.0676L127.119 19.9307C127.249 19.6118 127.316 19.2704 127.314 18.926C127.312 18.5815 127.242 18.2408 127.108 17.9234C126.974 17.606 126.779 17.3181 126.534 17.0762C126.289 16.8343 125.998 16.6432 125.679 16.5138L123.741 15.82C122.079 15.2439 120.416 14.681 118.767 14.0526C118.524 13.9336 118.258 13.8717 117.988 13.8717C117.718 13.8717 117.451 13.9336 117.209 14.0526C116.057 14.6548 114.879 15.1916 113.674 15.6759C113.459 15.7552 113.266 15.8862 113.113 16.0574C112.96 16.2286 112.852 16.4348 112.797 16.6578M83.6682 45.2105C84.4799 42.7362 85.3177 40.2619 86.1556 37.8007C86.0509 37.5912 85.9592 37.3687 85.8676 37.1592L80.8142 39.1229L76.1144 40.9819V40.9034L81.5605 38.2065L85.6058 36.2428C85.5528 35.9402 85.5265 35.6336 85.5272 35.3264V28.2831L83.786 29.0817L72.9331 34.0434C72.7359 34.1271 72.5589 34.2522 72.4144 34.4103C72.2698 34.5685 72.161 34.7559 72.0953 34.9598C71.7287 35.9024 71.336 36.845 70.9563 37.7876C70.4065 39.0968 69.8435 40.5106 69.3199 41.8853C69.176 42.218 69.1028 42.577 69.1049 42.9394C69.107 43.3019 69.1843 43.66 69.332 43.9911C69.4796 44.3221 69.6945 44.6189 69.9628 44.8626C70.2311 45.1063 70.5472 45.2917 70.8908 45.4069C73.2211 46.2317 75.5776 47.0433 77.921 47.8943C78.1324 47.977 78.3595 48.0116 78.5859 47.9958C78.8123 47.9799 79.0324 47.914 79.2302 47.8027C80.4084 47.2528 81.5736 46.6899 82.7649 46.1924C82.991 46.1117 83.1945 45.9781 83.3585 45.8027C83.5225 45.6274 83.6421 45.4153 83.7075 45.1843M113.15 46.3233C113.098 46.1938 113.016 46.0781 112.912 45.9851C112.807 45.8921 112.683 45.8242 112.548 45.7866L111.003 45.2629L104.589 43.0504C104.471 43.0504 104.327 42.9195 104.235 43.0504C104.143 43.1813 104.235 43.273 104.235 43.3777L105.099 45.6033C105.832 47.5408 106.57 49.4784 107.312 51.4159L107.822 52.7251H107.731L107.626 52.5287C107.272 51.7825 106.919 51.0232 106.552 50.277C105.61 48.3918 104.719 46.4804 103.79 44.569L103.004 42.9326L100.844 44.2417C100.05 44.7078 99.1469 44.9562 98.226 44.9618C97.3779 44.9582 96.543 44.7517 95.791 44.3596C96.7074 46.3888 97.6238 48.4441 98.5271 50.4864C99.4305 52.5287 100.347 54.4924 101.224 56.5216C101.297 56.7155 101.409 56.8924 101.553 57.041C101.697 57.1897 101.87 57.307 102.062 57.3857L108.948 60.2266C109.297 60.3885 109.677 60.4716 110.062 60.4699C110.446 60.4682 110.826 60.3818 111.173 60.2168C111.521 60.0518 111.828 59.8123 112.072 59.5153C112.316 59.2183 112.492 58.8712 112.587 58.4985C113.373 56.1551 114.185 53.8248 114.983 51.4814C115.058 51.3054 115.096 51.1161 115.096 50.925C115.096 50.7338 115.058 50.5446 114.983 50.3686C114.355 49.0594 113.766 47.6586 113.177 46.2971M127.905 41.0605C127.709 40.2286 127.382 39.4332 126.936 38.704C126.111 36.9628 125.299 35.2217 124.475 33.4674C124.415 33.2847 124.317 33.1172 124.185 32.977C124.054 32.8367 123.894 32.727 123.715 32.6557C122.485 32.1975 121.254 31.7262 120.037 31.2287C119.767 31.0738 119.459 30.9989 119.148 31.0128C118.837 31.0267 118.537 31.1288 118.282 31.3073C118.124 31.4158 117.958 31.5121 117.785 31.5953L111.017 34.9336L110.899 34.9991V35.2217H111.017L112.182 35.7584L117.824 38.3898L119.945 39.3717C119.788 39.4895 119.696 39.3717 119.605 39.3717L112.391 36.8712L110.768 36.3083C110.63 37.0514 110.336 37.7567 109.905 38.3774C109.474 38.9981 108.916 39.52 108.267 39.9084L104.955 41.846L110.519 43.9537L117.968 46.8077C118.15 46.9136 118.352 46.982 118.561 47.009C118.77 47.036 118.982 47.0209 119.186 46.9648L120.442 46.4542L125.299 44.3727C125.913 44.1585 126.484 43.8396 126.988 43.4301C127.305 43.1474 127.544 42.7887 127.684 42.3879C127.824 41.9871 127.859 41.5573 127.787 41.139" fill="#34479A"/>
<path fill-rule="evenodd" clip-rule="evenodd" d="M94.2593 43.993C94.2593 43.9014 94.2593 43.7574 94.076 43.7705C93.8927 43.7835 93.932 43.9014 93.8927 43.993C92.6359 46.8732 91.3835 49.7533 90.1354 52.6334C89.9914 52.9607 89.8343 53.2749 89.6903 53.6022C90.0569 52.2931 90.4889 51.0494 90.9078 49.7795L93.2512 42.8671L88.1717 39.9084C87.7581 39.6636 87.3794 39.3641 87.0458 39.0182C85.5097 43.1202 83.9867 47.2135 82.4769 51.2981C82.4023 51.4741 82.3639 51.6633 82.3639 51.8545C82.3639 52.0457 82.4023 52.2349 82.4769 52.4109C83.3933 54.571 84.3097 56.7311 85.1737 58.9567C85.3272 59.4736 85.6096 59.9431 85.9943 60.3209C86.379 60.6988 86.8535 60.9726 87.3731 61.1168H88.211C88.4336 61.0564 88.6522 60.9821 88.8655 60.8942L95.8826 57.4642C96.1472 57.3326 96.3494 57.1022 96.4456 56.8228C96.9692 55.3827 97.506 53.9557 98.0427 52.5287C98.0852 52.4294 98.1071 52.3225 98.1071 52.2145C98.1071 52.1065 98.0852 51.9996 98.0427 51.9003C96.7772 49.282 95.5117 46.6637 94.2462 44.0454" fill="#34479A"/>
<path fill-rule="evenodd" clip-rule="evenodd" d="M96.0135 35.5359L90.227 38.9266L96.0266 42.3173C96.6931 42.7099 97.4525 42.9169 98.226 42.9169C98.9995 42.9169 99.7589 42.7099 100.425 42.3173L106.212 38.9266L100.412 35.5359C99.7458 35.1433 98.9864 34.9362 98.2129 34.9362C97.4394 34.9362 96.68 35.1433 96.0135 35.5359Z" fill="#4067AD"/>
<path fill-rule="evenodd" clip-rule="evenodd" d="M106.84 23.3083L100.412 19.5511C99.7458 19.1585 98.9864 18.9514 98.2129 18.9514C97.4394 18.9514 96.68 19.1585 96.0135 19.5511L89.5856 23.3083C88.9145 23.7049 88.3586 24.2698 87.9729 24.9472C87.5871 25.6245 87.3849 26.3909 87.3862 27.1703V34.698C87.3862 34.7896 87.3862 34.8682 87.3862 34.9336C87.4206 34.1969 87.6386 33.4804 88.0205 32.8494C88.4023 32.2183 88.9358 31.6927 89.5725 31.3204L96.0005 27.55C96.6669 27.1574 97.4263 26.9504 98.1998 26.9504C98.9734 26.9504 99.7328 27.1574 100.399 27.55L106.827 31.3204C107.468 31.6905 108.006 32.2149 108.392 32.8459C108.779 33.477 109.001 34.1947 109.04 34.9336V27.1703C109.041 26.3909 108.839 25.6245 108.453 24.9472C108.067 24.2698 107.511 23.7049 106.84 23.3083Z" fill="#324598"/>
<path fill-rule="evenodd" clip-rule="evenodd" d="M89.5856 38.56L90.2271 38.9266L96.0135 35.5358C96.68 35.1433 97.4394 34.9362 98.2129 34.9362C98.9864 34.9362 99.7458 35.1433 100.412 35.5358L106.212 38.9266L106.853 38.56C107.478 38.1902 108.004 37.674 108.384 37.056C108.765 36.4379 108.99 35.7365 109.04 35.0122V34.8551C108.99 34.1308 108.765 33.4294 108.384 32.8113C108.004 32.1932 107.478 31.6771 106.853 31.3073L100.412 27.5369C99.746 27.1507 98.9896 26.9473 98.2195 26.9473C97.4494 26.9473 96.6929 27.1507 96.0266 27.5369L89.5856 31.3073C88.951 31.6853 88.4195 32.214 88.0382 32.8466C87.6568 33.4791 87.4374 34.196 87.3993 34.9336C87.4374 35.6713 87.6568 36.3881 88.0382 37.0207C88.4195 37.6533 88.951 38.182 89.5856 38.56Z" fill="#3457A7"/>
</g>
<defs>
<clipPath id="clip0_1117_2087">
<rect width="213.17" height="60.1688" fill="white" transform="translate(0 0.895569)"/>
</clipPath>
</defs>
</svg>
