<?xml version="1.0" encoding="utf-8"?>
<!-- Generator: Adobe Illustrator 26.4.1, SVG Export Plug-In . SVG Version: 6.00 Build 0)  -->
<svg version="1.1" id="Layer_1" xmlns="http://www.w3.org/2000/svg" xmlns:xlink="http://www.w3.org/1999/xlink" x="0px" y="0px"
	 viewBox="0 0 181 48" style="enable-background:new 0 0 181 48;" xml:space="preserve">
<style type="text/css">
	.st0{fill:#073F84;}
	.st1{clip-path:url(#SVGID_00000096028569462093875640000009067473297309833655_);}
	.st2{fill-rule:evenodd;clip-rule:evenodd;fill:#FFFFFF;}
	.st3{fill-rule:evenodd;clip-rule:evenodd;fill:#D3D3D3;}
	.st4{fill:none;stroke:#2B76C7;}
</style>
<path class="st0" d="M10,0.5h161c5.2,0,9.5,4.3,9.5,9.5v28c0,5.2-4.3,9.5-9.5,9.5H10c-5.2,0-9.5-4.3-9.5-9.5V10
	C0.5,4.8,4.8,0.5,10,0.5z"/>
<g>
	<defs>
		<rect id="SVGID_1_" width="43" height="48"/>
	</defs>
	<clipPath id="SVGID_00000091729855727512624860000007792899599057559226_">
		<use xlink:href="#SVGID_1_"  style="overflow:visible;"/>
	</clipPath>
	<g style="clip-path:url(#SVGID_00000091729855727512624860000007792899599057559226_);">
		<path class="st2" d="M23.1-8.5c-0.2,0-0.4-0.1-0.6-0.2c-6.3-3.9-13.5-6-20.9-6c-0.9,0-1.7,0-2.6,0.1c-1,0.1-1.9,0.2-2.8,0.3
			c-0.6,0.1-1.2-0.4-1.3-1c-0.1-0.6,0.4-1.2,1-1.3c1-0.1,2-0.2,3-0.3C-0.3-17,0.6-17,1.5-17c7.9,0,15.6,2.2,22.2,6.4
			c0.5,0.3,0.7,1.1,0.4,1.6C23.8-8.7,23.5-8.5,23.1-8.5z M12.4-7.2c-0.1,0-0.2,0-0.4-0.1C9.8-8,7.6-8.5,5.3-8.7
			C0.7-9.2-3.9-8.8-8.2-7.5c-0.6,0.2-1.3-0.2-1.5-0.8c-0.2-0.6,0.2-1.3,0.8-1.5c4.6-1.4,9.6-1.9,14.5-1.3c2.4,0.3,4.8,0.8,7.1,1.5
			c0.6,0.2,1,0.9,0.7,1.5C13.3-7.5,12.8-7.2,12.4-7.2z M29.7-3.2c-0.3,0-0.6-0.1-0.8-0.3c-0.3-0.3-0.7-0.6-1-0.9
			c-0.5-0.4-0.5-1.2-0.1-1.7c0.4-0.5,1.2-0.5,1.7-0.1c0.4,0.3,0.7,0.7,1.1,1C31-4.8,31-4,30.6-3.6C30.3-3.4,30-3.2,29.7-3.2z
			 M25.6,0.7c-0.3,0-0.6-0.1-0.8-0.3c-0.3-0.3-0.7-0.6-1-0.9c-0.5-0.4-0.5-1.2-0.1-1.6c0.4-0.5,1.2-0.5,1.7-0.1
			c0.4,0.3,0.7,0.7,1.1,1c0.5,0.4,0.5,1.2,0,1.7C26.2,0.6,25.9,0.7,25.6,0.7z M-31.2,2c-0.2,0-0.5-0.1-0.7-0.2
			c-0.5-0.4-0.6-1.1-0.3-1.6c4.3-5.9,10.1-10.6,16.8-13.6c0.6-0.3,1.3,0,1.6,0.6c0.3,0.6,0,1.3-0.6,1.5c-6.3,2.8-11.8,7.2-15.8,12.8
			C-30.5,1.8-30.9,2-31.2,2z M-3.2,2.9c-0.5,0-1-0.4-1.2-0.9C-4.4,1.4-4,0.8-3.4,0.6c0.5-0.1,1-0.2,1.5-0.3c0.6-0.1,1.2,0.4,1.3,1
			C-0.5,2-1,2.6-1.6,2.7C-2,2.7-2.5,2.8-2.9,2.9C-3,2.9-3.1,2.9-3.2,2.9z M-37.7,16c-0.1,0-0.2,0-0.3,0c-0.6-0.2-1-0.8-0.9-1.4
			c0.1-0.5,0.2-0.9,0.4-1.4c0.2-0.6,0.8-1,1.5-0.8c0.6,0.2,1,0.8,0.8,1.4c-0.1,0.4-0.2,0.9-0.3,1.3C-36.7,15.6-37.2,16-37.7,16z
			 M-13.5,16.8c-0.2,0-0.4-0.1-0.6-0.2c-0.6-0.3-0.8-1-0.4-1.6c0.3-0.4,0.5-0.9,0.8-1.3c0.4-0.5,1.1-0.7,1.6-0.3
			c0.5,0.4,0.7,1.1,0.3,1.6c-0.2,0.4-0.5,0.7-0.7,1.1C-12.7,16.5-13.1,16.8-13.5,16.8z M16.8,17.3c-0.4,0-0.8-0.2-1-0.6
			c-0.1-0.2-0.2-0.3-0.3-0.5c-0.1-0.2-0.2-0.4-0.3-0.6c-0.1-0.2-0.3-0.5-0.5-0.7c-0.1-0.1-0.1-0.2-0.2-0.2l-0.1-0.1
			c-1-1.3-2.1-2.4-3.3-3.2l-0.2-0.1c-0.1,0-0.1-0.1-0.2-0.1c-0.2-0.2-0.5-0.3-0.7-0.5c-0.2-0.1-0.4-0.2-0.5-0.3
			c-0.2-0.1-0.4-0.2-0.6-0.3C8.6,9.8,8.4,9.7,8.1,9.6C7.9,9.5,7.7,9.4,7.6,9.4C7.2,9.2,6.9,9.1,6.5,9L6.4,8.9c0,0-0.1,0-0.1,0
			c-1-0.3-2-0.5-3-0.6c-0.4,0-0.7-0.1-1.1-0.1c-0.1,0-0.2,0-0.3,0c-0.1,0-0.2,0-0.3,0c-3,0-6,0.8-8.5,2.4c-0.6,0.3-1.3,0.2-1.6-0.4
			C-9,9.7-8.8,8.9-8.2,8.6c2.9-1.8,6.3-2.8,9.7-2.8c0.2,0,0.3,0,0.5,0c0.1,0,0.1,0,0.2,0c0.4,0,0.9,0,1.3,0.1
			c1.2,0.1,2.3,0.4,3.4,0.7c0.1,0,0.2,0.1,0.2,0.1l0.1,0c0.4,0.1,0.8,0.3,1.2,0.4C8.7,7.3,8.8,7.4,9,7.5c0.3,0.1,0.6,0.3,0.9,0.4
			c0.2,0.1,0.5,0.3,0.7,0.4c0.2,0.1,0.4,0.2,0.6,0.4c0.3,0.2,0.6,0.4,0.8,0.5c0.1,0.1,0.2,0.1,0.3,0.2l0.1,0.1
			c1.4,1,2.7,2.3,3.8,3.7l0.1,0.1c0.1,0.1,0.2,0.2,0.2,0.3c0.2,0.3,0.4,0.5,0.5,0.8c0.1,0.2,0.3,0.4,0.4,0.6
			c0.1,0.2,0.2,0.4,0.3,0.6c0.3,0.6,0.1,1.3-0.5,1.6C17.2,17.3,17,17.3,16.8,17.3z M-32.8,21c0,0-0.1,0-0.1,0
			c-0.6-0.1-1.1-0.7-1-1.3c1.2-9.7,6.5-18.5,14.6-24.3c0.5-0.4,1.3-0.3,1.6,0.3c0.4,0.5,0.3,1.3-0.3,1.6
			C-25.5,2.6-30.5,10.9-31.6,20C-31.7,20.6-32.2,21-32.8,21z M24.2,21.3c-0.6,0-1.1-0.4-1.2-1c0-0.2-0.1-0.4-0.1-0.6
			c0-0.1-0.1-0.3-0.1-0.4c0-0.1-0.1-0.2-0.1-0.3l0-0.2c-0.1-0.4-0.2-0.8-0.3-1.2c0-0.1-0.1-0.3-0.2-0.4c0-0.1-0.1-0.2-0.1-0.3l0-0.1
			c-0.1-0.4-0.3-0.8-0.5-1.2c-0.1-0.1-0.1-0.3-0.2-0.4c0-0.1-0.1-0.2-0.1-0.3l0-0.1c-0.2-0.4-0.4-0.8-0.6-1.1
			c-0.1-0.1-0.2-0.3-0.2-0.4L20.2,13c-0.2-0.4-0.5-0.8-0.7-1.2c-0.1-0.1-0.2-0.2-0.3-0.4L19,11.2c-0.3-0.4-0.6-0.7-0.9-1.1
			c-0.1-0.1-0.2-0.2-0.3-0.4l-0.2-0.2c-0.3-0.3-0.6-0.7-1-1c-0.1-0.1-0.3-0.2-0.4-0.4l-0.2-0.2c-0.3-0.3-0.7-0.6-1-0.9
			c-0.2-0.1-0.3-0.2-0.5-0.4l-0.2-0.1c-0.3-0.2-0.7-0.5-1.1-0.8c-0.2-0.1-0.4-0.2-0.6-0.4l-0.1-0.1c-0.3-0.2-0.7-0.4-1.1-0.6l-0.1,0
			c-0.6-0.3-0.8-1-0.5-1.6c0.3-0.6,1-0.8,1.6-0.5l0.1,0c0.5,0.2,0.9,0.5,1.2,0.7l0.1,0.1c0.2,0.1,0.5,0.3,0.7,0.4
			c0.4,0.3,0.9,0.6,1.2,0.8L16,5c0.2,0.1,0.4,0.3,0.5,0.4c0.4,0.3,0.8,0.7,1.1,1l0.2,0.2c0.2,0.1,0.3,0.3,0.5,0.4
			c0.4,0.4,0.7,0.7,1.1,1.1l0.2,0.2c0.1,0.1,0.3,0.3,0.4,0.4c0.3,0.4,0.6,0.8,1,1.2l0.2,0.2c0.1,0.1,0.2,0.3,0.3,0.5
			c0.3,0.4,0.6,0.9,0.8,1.3l0.1,0.2c0.1,0.2,0.2,0.3,0.3,0.5c0.2,0.4,0.4,0.9,0.7,1.3l0.2,0.3c0.1,0.2,0.2,0.3,0.2,0.5
			c0.2,0.4,0.4,0.9,0.5,1.3l0,0.1c0,0.1,0.1,0.2,0.1,0.3c0.1,0.2,0.1,0.4,0.2,0.6c0.1,0.4,0.3,0.9,0.4,1.3l0,0.2
			c0,0.1,0,0.2,0.1,0.3c0.1,0.2,0.1,0.4,0.1,0.6c0.1,0.3,0.1,0.5,0.1,0.8c0.1,0.6-0.3,1.2-1,1.3C24.3,21.3,24.2,21.3,24.2,21.3z
			 M41.7,28.6C41.7,28.6,41.6,28.6,41.7,28.6c-0.7-0.1-1.2-0.6-1.2-1.3c0.1-1.1,0.1-2.2,0.1-3.2c0-5.8-1.3-11.4-3.8-16.7
			c-0.3-0.6,0-1.3,0.6-1.6c0.6-0.3,1.3,0,1.6,0.6c2.7,5.5,4,11.5,4,17.7c0,1.1,0,2.3-0.1,3.4C42.8,28.2,42.3,28.6,41.7,28.6z
			 M-21.2,29.2c-0.6,0-1.1-0.4-1.2-1c-0.2-1.3-0.4-2.7-0.4-4.1c0-0.7,0-1.4,0.1-2.1c0.7-7.8,5.3-14.9,12.3-18.8
			c0.6-0.3,1.3-0.1,1.6,0.4c0.3,0.6,0.1,1.3-0.4,1.6c-6.3,3.6-10.5,9.9-11.1,17c-0.1,0.6-0.1,1.3-0.1,1.9c0,1.2,0.1,2.5,0.3,3.7
			c0.1,0.6-0.3,1.2-1,1.3C-21.1,29.2-21.1,29.2-21.2,29.2z M-32.8,29.4c-0.6,0-1.1-0.4-1.2-1c-0.1-0.5-0.1-1-0.1-1.4
			c-0.1-0.6,0.4-1.2,1.1-1.3c0.6-0.1,1.2,0.4,1.3,1.1c0,0.5,0.1,0.9,0.1,1.3c0.1,0.6-0.4,1.2-1,1.3C-32.7,29.4-32.8,29.4-32.8,29.4z
			 M35.2,33c-0.1,0-0.2,0-0.3,0c-0.6-0.1-1-0.8-0.9-1.4c0.6-2.4,0.8-4.9,0.8-7.4c0-1.4-0.1-2.8-0.3-4.2C34,14.8,32.1,9.9,29.1,5.6
			C28.8,5,28.9,4.3,29.5,4c0.5-0.4,1.3-0.2,1.6,0.3c3.2,4.6,5.2,9.9,5.9,15.4c0.2,1.5,0.3,3,0.3,4.5c0,2.7-0.3,5.3-0.9,7.9
			C36.2,32.6,35.7,33,35.2,33z M4.4,42.2c-0.6,0-1.1-0.4-1.2-1c-0.1-0.6,0.3-1.2,1-1.3c3.3-0.6,6.3-2.1,8.7-4.5l0,0
			c0.1-0.1,0.1-0.1,0.2-0.2c0.4-0.4,0.7-0.8,1.1-1.3l0.1-0.1c0.3-0.4,0.6-0.8,0.8-1.2c0.1-0.1,0.1-0.2,0.2-0.3
			c0.2-0.3,0.4-0.7,0.6-1.1c0.1-0.1,0.1-0.3,0.2-0.4c0.1-0.3,0.3-0.7,0.4-1.1l0.1-0.1c0-0.1,0.1-0.2,0.1-0.4
			c0.1-0.4,0.2-0.8,0.3-1.1l0.1-0.2c0-0.1,0.1-0.2,0.1-0.3c0-0.2,0.1-0.4,0.1-0.7c0.1-0.6,0.7-1.1,1.3-1c0.6,0.1,1.1,0.7,1,1.3
			c0,0.3-0.1,0.5-0.1,0.8c0,0.2-0.1,0.3-0.1,0.5l0,0.2c-0.1,0.4-0.2,0.8-0.4,1.3c0,0.1-0.1,0.3-0.2,0.4l-0.1,0.1
			c-0.2,0.5-0.3,0.9-0.5,1.2c-0.1,0.2-0.2,0.3-0.2,0.5c-0.2,0.5-0.5,0.9-0.7,1.3c-0.1,0.1-0.1,0.2-0.2,0.3c-0.3,0.5-0.6,0.9-1,1.4
			L16,35.4c-0.4,0.5-0.8,1-1.3,1.4l-0.1,0.1c0,0-0.1,0.1-0.1,0.1c-2.7,2.7-6.2,4.5-10,5.1C4.5,42.2,4.4,42.2,4.4,42.2z M-12.5,42.7
			c-1,0-1.9-0.4-2.7-1.1c-0.9-0.8-1.7-1.7-2.4-2.6c-0.4-0.5-0.3-1.2,0.2-1.6c0.5-0.4,1.3-0.3,1.7,0.2c0.7,0.8,1.4,1.6,2.2,2.4
			c0.3,0.3,0.7,0.5,1.1,0.5c0.9,0,1.8-0.9,1.8-1.7c0-0.3-0.1-0.7-0.4-1c-0.2-0.2-0.4-0.5-0.6-0.7c-2.1-2.1-3.6-4.7-4.5-7.4
			c-0.2-0.6,0.2-1.3,0.8-1.5c0.6-0.2,1.3,0.2,1.5,0.8c0.7,2.4,2.1,4.7,3.9,6.5c0.3,0.3,0.5,0.5,0.8,0.8c0.6,0.7,0.9,1.6,0.9,2.5
			C-8.3,40.8-10.2,42.7-12.5,42.7z M-30.8,49.3c-0.4,0-0.7-0.2-0.9-0.5c-5.4-7.2-8.3-15.7-8.3-24.7c0-0.8,0-1.7,0.1-2.5
			c0-0.6,0.6-1.1,1.2-1.1c0.6,0,1.1,0.6,1.1,1.2c0,0.8-0.1,1.6-0.1,2.3c0,8.5,2.7,16.5,7.8,23.3c0.4,0.5,0.3,1.2-0.2,1.6
			C-30.3,49.2-30.5,49.3-30.8,49.3z M4.4,50.3c-0.7,0-1.2-0.5-1.2-1.2v-2.4c0-0.6,0.4-1.1,1-1.2c5.1-0.6,9.8-3,13.3-6.7l0.1-0.1
			c0.9-1,1.8-2.1,2.6-3.4c0.1-0.2,0.2-0.3,0.3-0.5c0.2-0.3,0.3-0.6,0.5-0.9c0.1-0.3,0.3-0.5,0.4-0.8l0.1-0.2
			c0.1-0.2,0.2-0.4,0.3-0.7c0.2-0.5,0.4-0.9,0.5-1.4c0.2-0.6,0.9-0.9,1.5-0.7c0.6,0.2,1,0.9,0.7,1.5c-0.2,0.5-0.4,1-0.6,1.6
			c-0.1,0.3-0.2,0.5-0.3,0.8l-0.1,0.2c-0.1,0.3-0.3,0.6-0.4,0.9c-0.2,0.3-0.4,0.7-0.5,1c-0.1,0.2-0.2,0.4-0.3,0.5
			c-0.9,1.4-1.8,2.7-2.8,3.8l-0.1,0.1c-3.6,3.9-8.5,6.4-13.7,7.3v1.4C5.6,49.8,5,50.3,4.4,50.3z M-12.8,56.5c-0.2,0-0.3,0-0.5-0.1
			c-6.8-3-12.3-8-16.1-14.4c-0.3-0.6-0.1-1.3,0.4-1.6c0.6-0.3,1.3-0.1,1.6,0.4c3.5,5.9,8.7,10.6,15,13.4c0.6,0.3,0.9,1,0.6,1.5
			C-11.9,56.3-12.3,56.5-12.8,56.5z M15,56.8c-0.5,0-0.9-0.3-1.1-0.7c-0.3-0.6,0-1.3,0.6-1.5c6.4-2.7,11.7-7.2,15.3-13.1
			c0.3-0.5,1.1-0.7,1.6-0.4c0.6,0.3,0.7,1.1,0.4,1.6c-3.9,6.3-9.6,11.1-16.4,14C15.3,56.8,15.2,56.8,15,56.8z M4.4,58.8
			c-0.7,0-1.2-0.5-1.2-1.2v-1.4c0-0.6,0.5-1.2,1.2-1.2c0.7,0,1.2,0.5,1.2,1.2v1.4C5.6,58.2,5,58.8,4.4,58.8z M-1.4,59.5
			C-1.4,59.5-1.4,59.5-1.4,59.5c-0.3,0-0.4,0-0.6-0.1c-0.6-0.1-1.1-0.6-1.1-1.3c0-0.4,0.2-0.7,0.5-0.8V40.2c0-0.6,0.5-1.2,1.2-1.2
			c0.7,0,1.2,0.5,1.2,1.2v18.1c0,0.3-0.1,0.6-0.4,0.9C-0.8,59.3-1.1,59.5-1.4,59.5z M20.9,60.3c-0.4,0-0.8-0.2-1-0.6
			c-0.3-0.6-0.1-1.3,0.5-1.6c8.1-4.4,14.4-11.6,17.7-20.2c0.2-0.6,0.9-0.9,1.5-0.7c0.6,0.2,0.9,0.9,0.7,1.5
			c-3.5,9.1-10.2,16.7-18.8,21.4C21.3,60.3,21.1,60.3,20.9,60.3z M13.1,63.6c-0.5,0-1-0.3-1.1-0.8c-0.2-0.6,0.2-1.3,0.8-1.5
			c0.4-0.1,0.9-0.3,1.3-0.4c0.6-0.2,1.3,0.1,1.5,0.7c0.2,0.6-0.1,1.3-0.7,1.5c-0.5,0.2-0.9,0.3-1.4,0.4
			C13.3,63.6,13.2,63.6,13.1,63.6z M-3.3,65c0,0-0.1,0-0.1,0c-7.3-0.9-14.2-3.6-20.1-8c-0.5-0.4-0.6-1.1-0.2-1.6
			c0.4-0.5,1.1-0.6,1.6-0.2c5.5,4.1,12.1,6.8,18.9,7.6c0.6,0.1,1.1,0.7,1,1.3C-2.2,64.6-2.7,65-3.3,65z"/>
		<path class="st3" d="M-10-0.5c-0.5,0-0.9-0.3-1.1-0.7c-0.3-0.6,0-1.3,0.6-1.5c0.4-0.2,0.9-0.4,1.4-0.6c0.6-0.2,1.3,0.1,1.5,0.7
			C-7.3-2-7.6-1.3-8.2-1.1c-0.4,0.2-0.8,0.3-1.3,0.5C-9.6-0.5-9.8-0.5-10-0.5z M23.4,7.4c-0.3,0-0.7-0.1-0.9-0.4
			c-3.7-4.4-8.6-7.5-14.3-9c-1-0.3-2.1-0.5-3.1-0.6C4.5-2.7,4-3.3,4.1-4C4.2-4.6,4.8-5,5.4-5c1.1,0.2,2.3,0.4,3.4,0.7
			C15-2.7,20.3,0.6,24.3,5.5c0.4,0.5,0.3,1.2-0.2,1.6C24,7.3,23.7,7.4,23.4,7.4z M-26.8,27.9c-0.6,0-1.1-0.5-1.2-1.1
			c-0.1-0.9-0.1-1.8-0.1-2.6c0-2.4,0.3-4.9,0.9-7.3C-25.6,10.5-21.9,5-16.8,1c0.5-0.4,1.3-0.3,1.7,0.2c0.4,0.5,0.3,1.2-0.2,1.6
			c-4.8,3.7-8.1,8.7-9.6,14.6c-0.6,2.2-0.9,4.5-0.9,6.7c0,0.8,0,1.6,0.1,2.4c0.1,0.6-0.4,1.2-1.1,1.3
			C-26.8,27.9-26.8,27.9-26.8,27.9z M23.1,43.6c-0.3,0-0.5-0.1-0.8-0.3c-0.5-0.4-0.6-1.2-0.1-1.6c2.7-3.1,4.6-6.8,5.7-10.8
			c0.6-2.2,0.9-4.5,0.9-6.7c0-2.6-0.4-5.2-1.1-7.7c-0.2-0.6,0.2-1.3,0.8-1.5c0.6-0.2,1.3,0.2,1.5,0.8c0.8,2.7,1.2,5.6,1.2,8.4
			c0,2.4-0.3,4.9-0.9,7.3c-1.1,4.4-3.2,8.3-6.1,11.8C23.8,43.5,23.5,43.6,23.1,43.6z M16.7,49.1c-0.4,0-0.8-0.2-1-0.5
			c-0.3-0.5-0.2-1.3,0.4-1.6c0.4-0.2,0.8-0.5,1.1-0.8c0.5-0.4,1.3-0.2,1.6,0.3c0.4,0.5,0.2,1.3-0.3,1.6c-0.4,0.3-0.8,0.6-1.2,0.8
			C17.2,49.1,17,49.1,16.7,49.1z M-7.8,52c-0.1,0-0.3,0-0.4-0.1c-7.1-2.4-12.9-7.4-16.4-13.9c-0.3-0.6-0.1-1.3,0.5-1.6
			c0.6-0.3,1.3-0.1,1.6,0.5c3.2,6,8.6,10.6,15.1,12.8c0.6,0.2,0.9,0.9,0.7,1.5C-6.9,51.7-7.3,52-7.8,52z"/>
		<path class="st3" d="M-0.6,23c0.2-0.6,0-1.2-0.4-1.6c-1.1-1-1.6-2.5-1.2-4c0.3-1.4,1.5-2.5,2.9-2.8c0.3-0.1,0.6-0.1,0.9-0.1
			c0,0,0,0,0.1,0c0,0,0,0,0.1,0c0.3,0,0.6,0,0.9,0.1c1.4,0.3,2.6,1.5,2.9,2.8c0.4,1.5-0.1,3-1.2,4c-0.5,0.4-0.6,1-0.4,1.6L7,31.9
			H1.6H1.5h-5.4L-0.6,23z M-2.6,34.8h4.2h0.1h4.2h2.1c0.8,0,1.5-0.4,1.9-1c0.3-0.4,0.5-1,0.4-1.5c0-0.2,0-0.4-0.1-0.6l-3.2-8.8
			c1.1-1.2,1.7-2.8,1.7-4.4c0-2.1-1-4.1-2.6-5.4c-0.3-0.2-0.6-0.4-0.9-0.6c0,0,0,0-0.1,0c-0.2-0.1-0.5-0.2-0.7-0.3c0,0-0.1,0-0.1,0
			c-0.7-0.3-1.5-0.4-2.3-0.4c-0.1,0-0.1,0-0.2,0c-0.1,0-0.1,0-0.2,0c-0.8,0-1.6,0.2-2.3,0.4c0,0-0.1,0-0.1,0
			c-0.3,0.1-0.5,0.2-0.7,0.3c0,0,0,0-0.1,0c-0.3,0.2-0.6,0.4-0.9,0.6c-1.7,1.3-2.6,3.3-2.6,5.4c0,1.6,0.6,3.2,1.7,4.4L-7,31.7
			C-7,31.9-7,32.1-7,32.3c0,0.5,0.1,1.1,0.4,1.5c0.4,0.6,1.2,1,1.9,1h0.8H-2.6z"/>
	</g>
</g>
<path class="st4" d="M10,0.5h161c5.2,0,9.5,4.3,9.5,9.5v28c0,5.2-4.3,9.5-9.5,9.5H10c-5.2,0-9.5-4.3-9.5-9.5V10
	C0.5,4.8,4.8,0.5,10,0.5z"/>
</svg>
