<svg width="28" height="35" viewBox="0 0 28 35" fill="none" xmlns="http://www.w3.org/2000/svg">
<path fill-rule="evenodd" clip-rule="evenodd" d="M2.19311 11.8692C2.86692 8.67104 3.20683 5.32269 3.51822 2.07457C3.5835 1.37498 3.21921 0.725451 2.70598 0.67548C2.19237 0.575537 1.72265 1.07554 1.65737 1.72516C1.35761 4.87334 1.03684 8.12116 0.388169 11.1694C0.24748 11.819 0.537108 12.5189 1.03534 12.7188C1.53319 12.9187 2.05205 12.5188 2.19311 11.8692Z" fill="#34479A"/>
<path fill-rule="evenodd" clip-rule="evenodd" d="M11.7461 21.5631C15.6895 16.4161 19.1253 10.6195 23.1745 5.57241C23.5527 5.12267 23.573 4.32313 23.2199 3.82342C22.8665 3.32371 22.2722 3.27393 21.8941 3.77364C17.8332 8.82072 14.3861 14.6174 10.4311 19.7644C10.0619 20.2641 10.0567 21.0634 10.4198 21.5631C10.7826 22.0129 11.3769 22.0629 11.7461 21.5631Z" fill="#34479A"/>
<path fill-rule="evenodd" clip-rule="evenodd" d="M26.9139 31.2083C24.6568 31.3582 22.3998 31.5078 20.1424 31.6577C19.6254 31.6577 19.2262 32.2577 19.2514 32.9573C19.2769 33.6569 19.717 34.1563 20.2343 34.1563C22.4951 34.0064 24.7555 33.8567 27.0159 33.7068C27.5329 33.6569 27.9295 33.0571 27.9013 32.3575C27.8732 31.7079 27.4305 31.1583 26.9139 31.2083Z" fill="#34479A"/>
</svg>
